<svg version="1.1" xmlns="http://www.w3.org/2000/svg" xmlns:xlink="http://www.w3.org/1999/xlink" width="1100" height="850" viewBox="0,0,1100,850"><g fill="none" fill-rule="nonzero" stroke="#000000" stroke-width="none" stroke-linecap="butt" stroke-linejoin="miter" stroke-miterlimit="10" stroke-dasharray="" stroke-dashoffset="0" font-family="none" font-weight="none" font-size="none" text-anchor="none" style="mix-blend-mode: normal"><path d="M0,595v-595h420v595z" stroke-width="2"></path><path d="M48,0v595" stroke-width="2"></path><path d="M98,100c-9.94113,0 -18,-8.05887 -18,-18v0c0,-9.94113 8.05887,-18 18,-18h36c9.94113,0 18,8.05887 18,18v0c0,9.94113 -8.05887,18 -18,18z" stroke-width="1"></path><path d="M116.52597,71.2h4.29442v21.6h-4.57082v-17.26845h-0.12376l-4.94622,3.10222v-4.05103z" stroke-width="1"></path><path d="" stroke-width="1"></path><path d="" stroke-width="1"></path><path d="" stroke-width="1"></path><path d="" stroke-width="1"></path><path d="" stroke-width="1"></path><path d="" stroke-width="1"></path><path d="" stroke-width="1"></path><path d="" stroke-width="1"></path><path d="M81.74849,89.74849l8.50303,8.50303" stroke-width="1"></path><path d="M80.78983,87.28983l11.92033,11.92033" stroke-width="1"></path><path d="M80.30224,85.30224l14.39551,14.39551" stroke-width="1"></path><path d="M80.06729,83.56729l16.36542,16.36542" stroke-width="1"></path><path d="M80,82l18,18" stroke-width="1"></path><path d="M80.057,80.557l19.443,19.443" stroke-width="1"></path><path d="M80.21426,79.21426l20.78574,20.78574" stroke-width="1"></path><path d="M80.45606,77.95606l22.04394,22.04394" stroke-width="1"></path><path d="M80.77121,76.77121l23.22879,23.22879" stroke-width="1"></path><path d="M81.1515,75.6515l24.3485,24.3485" stroke-width="1"></path><path d="M81.59077,74.59077l25.40923,25.40923" stroke-width="1"></path><path d="M82.08438,73.58438l26.41562,26.41562" stroke-width="1"></path><path d="M82.6288,72.6288l27.3712,27.3712" stroke-width="1"></path><path d="M83.22139,71.72139l28.27861,28.27861" stroke-width="1"></path><path d="M83.86024,70.86024l29.13976,29.13976" stroke-width="1"></path><path d="M84.54406,70.04406l29.95594,29.95594" stroke-width="1"></path><path d="M85.27208,69.27208l30.72792,30.72792" stroke-width="1"></path><path d="M86.04406,68.54406l31.45594,31.45594" stroke-width="1"></path><path d="M86.86024,67.86024l32.13976,32.13976" stroke-width="1"></path><path d="M87.72139,67.22139l32.77861,32.77861" stroke-width="1"></path><path d="M88.6288,66.6288l33.3712,33.3712" stroke-width="1"></path><path d="M89.58438,66.08438l26.6652,26.6652M116.3,92.8l7.2,7.2" stroke-width="1"></path><path d="M90.59077,65.59077l25.65881,25.65881M117.8,92.8l7.2,7.2" stroke-width="1"></path><path d="M91.6515,65.1515l24.59808,24.59808M119.3,92.8l7.2,7.2" stroke-width="1"></path><path d="M92.77121,64.77121l23.47837,23.47837M120.8,92.8l7.2,7.2" stroke-width="1"></path><path d="M93.95606,64.45606l22.29352,22.29352M120.8204,91.3204l8.6796,8.6796" stroke-width="1"></path><path d="M95.21426,64.21426l21.03532,21.03532M120.8204,89.8204l10.1796,10.1796" stroke-width="1"></path><path d="M96.557,64.057l19.69258,19.69258M120.8204,88.3204l11.6796,11.6796" stroke-width="1"></path><path d="M98,64l13.1796,13.1796M112.07327,78.07327l4.17631,4.17631M120.8204,86.8204l13.1796,13.1796" stroke-width="1"></path><path d="M99.5,64l11.6796,11.6796M112.9951,77.4951l3.25448,3.25448M120.8204,85.3204l14.6226,14.6226" stroke-width="1"></path><path d="M101,64l10.42651,10.42651M113.91694,76.91694l2.33264,2.33264M120.8204,83.8204l15.96534,15.96534" stroke-width="1"></path><path d="M102.5,64l9.84523,9.84523M114.83877,76.33877l1.41081,1.41081M120.8204,82.3204l17.22354,17.22354" stroke-width="1"></path><path d="M104,64l9.26394,9.26394M115.76061,75.76061l0.48897,0.48897M120.8204,80.8204l18.40839,18.40839" stroke-width="1"></path><path d="M105.5,64l8.68266,8.68266M120.8204,79.3204l19.5281,19.5281" stroke-width="1"></path><path d="M107,64l8.10137,8.10137M120.8204,77.8204l20.58883,20.58883" stroke-width="1"></path><path d="M108.5,64l7.52008,7.52008M120.8204,76.3204l21.59522,21.59522" stroke-width="1"></path><path d="M110,64l7.2,7.2M120.8204,74.8204l22.55081,22.55081" stroke-width="1"></path><path d="M111.5,64l7.2,7.2M120.8204,73.3204l23.45821,23.45821" stroke-width="1"></path><path d="M113,64l7.2,7.2M120.8204,71.8204l24.31936,24.31936" stroke-width="1"></path><path d="M114.5,64l31.45594,31.45594" stroke-width="1"></path><path d="M116,64l30.72792,30.72792" stroke-width="1"></path><path d="M117.5,64l29.95594,29.95594" stroke-width="1"></path><path d="M119,64l29.13976,29.13976" stroke-width="1"></path><path d="M120.5,64l28.27861,28.27861" stroke-width="1"></path><path d="M122,64l27.3712,27.3712" stroke-width="1"></path><path d="M123.5,64l26.41562,26.41562" stroke-width="1"></path><path d="M125,64l25.40923,25.40923" stroke-width="1"></path><path d="M126.5,64l24.3485,24.3485" stroke-width="1"></path><path d="M128,64l23.22879,23.22879" stroke-width="1"></path><path d="M129.5,64l22.04394,22.04394" stroke-width="1"></path><path d="M131,64l20.78574,20.78574" stroke-width="1"></path><path d="M132.5,64l19.443,19.443" stroke-width="1"></path><path d="M134,64l18,18" stroke-width="1"></path><path d="M135.56729,64.06729l16.36542,16.36542" stroke-width="1"></path><path d="M137.30224,64.30224l14.39551,14.39551" stroke-width="1"></path><path d="M139.28983,64.78983l11.92033,11.92033" stroke-width="1"></path><path d="M141.74849,65.74849l8.50303,8.50303" stroke-width="1"></path><path d="" stroke-width="1"></path><path d="" stroke-width="1"></path><path d="" stroke-width="1"></path><path d="" stroke-width="1"></path><path d="" stroke-width="1"></path><path d="" stroke-width="1"></path><path d="" stroke-width="1"></path><path d="M169.49594,76.52441h-1.49594v-12.35452h1.49594v5.50007h6.58782v-5.50007h1.49594v12.35452h-1.49594v-5.52603h-6.58782zM183.10574,76.74148c-0.58674,0 -1.11921,-0.11168 -1.5974,-0.33505c-0.4782,-0.22337 -0.85808,-0.54741 -1.13965,-0.97213c-0.28157,-0.42314 -0.42236,-0.93673 -0.42236,-1.54078c0,-0.53011 0.10461,-0.96112 0.31382,-1.29302c0.20921,-0.33191 0.48842,-0.59224 0.83763,-0.78101c0.34921,-0.18876 0.73617,-0.33112 1.16089,-0.42708c0.42472,-0.09438 0.85179,-0.1691 1.28123,-0.22416c0.56314,-0.07236 1.02089,-0.1282 1.37325,-0.16753c0.35236,-0.03775 0.60955,-0.10303 0.77157,-0.19584c0.16359,-0.09281 0.24539,-0.25326 0.24539,-0.48134v-0.04955c0,-0.5946 -0.16202,-1.05707 -0.48606,-1.38741c-0.32404,-0.33033 -0.81325,-0.4955 -1.46763,-0.4955c-0.68112,0 -1.21437,0.14944 -1.59976,0.44831c-0.38539,0.2973 -0.65674,0.61505 -0.81404,0.95325l-1.35201,-0.4837c0.24225,-0.56314 0.56472,-1.0028 0.96741,-1.31898c0.40427,-0.3146 0.84707,-0.53561 1.32842,-0.66303c0.48134,-0.12584 0.95482,-0.18876 1.42044,-0.18876c0.2973,0 0.64022,0.03461 1.02876,0.10382c0.38854,0.07079 0.76449,0.21472 1.12786,0.43179c0.36494,0.21708 0.66775,0.54505 0.90842,0.98393c0.24067,0.43887 0.36101,1.02561 0.36101,1.76021v6.10647h-1.4228v-1.25527h-0.07315c-0.09595,0.20135 -0.2564,0.41685 -0.48134,0.64651c-0.22494,0.22809 -0.5246,0.42314 -0.89898,0.58516c-0.37438,0.16045 -0.83134,0.24067 -1.37089,0.24067zM183.32281,75.46262c0.56314,0 1.03898,-0.1109 1.42752,-0.33269c0.38854,-0.22022 0.68191,-0.50573 0.88011,-0.85651c0.19977,-0.34921 0.29966,-0.7173 0.29966,-1.10426v-1.30246c-0.05977,0.07236 -0.19191,0.13764 -0.3964,0.19584c-0.20292,0.0582 -0.43573,0.10854 -0.69842,0.15101c-0.26427,0.04247 -0.51988,0.07865 -0.76685,0.10854c-0.24696,0.02989 -0.44674,0.05506 -0.59932,0.07551c-0.36966,0.04876 -0.71494,0.12663 -1.03584,0.23359c-0.31932,0.10539 -0.57651,0.26427 -0.77157,0.47663c-0.19505,0.21079 -0.29258,0.49708 -0.29258,0.85887c0,0.49393 0.18404,0.86674 0.55213,1.11842c0.36809,0.25168 0.83528,0.37753 1.40156,0.37753zM191.38298,76.52441h-1.4228v-9.26589h1.37561v1.3992h0.09674c0.16831,-0.45932 0.47348,-0.83134 0.9155,-1.11606c0.44359,-0.28629 0.94303,-0.42944 1.4983,-0.42944c0.10382,0 0.23438,0.00236 0.39168,0.00708c0.15573,0.00315 0.27449,0.00944 0.35629,0.01888v1.44639c-0.04876,-0.01101 -0.15888,-0.02989 -0.33033,-0.05663c-0.16989,-0.02674 -0.35,-0.04011 -0.54033,-0.04011c-0.44988,0 -0.85101,0.09359 -1.20336,0.28078c-0.35078,0.18719 -0.62842,0.44438 -0.83292,0.77157c-0.20292,0.32876 -0.30438,0.70235 -0.30438,1.12078zM202.60493,67.25852h1.54549l-3.4284,9.26589h-1.44639l-3.4284,-9.26589h1.54549l2.55773,7.38298h0.09674zM208.46837,76.74148c-0.58674,0 -1.11921,-0.11168 -1.5974,-0.33505c-0.47977,-0.22337 -0.86044,-0.54741 -1.14201,-0.97213c-0.28157,-0.42314 -0.42236,-0.93673 -0.42236,-1.54078c0,-0.53011 0.10461,-0.96112 0.31382,-1.29302c0.20921,-0.33191 0.48921,-0.59224 0.83999,-0.78101c0.34921,-0.18876 0.73617,-0.33112 1.16089,-0.42708c0.42472,-0.09438 0.85179,-0.1691 1.28123,-0.22416c0.56314,-0.07236 1.02089,-0.1282 1.37325,-0.16753c0.35236,-0.03775 0.60955,-0.10303 0.77157,-0.19584c0.16359,-0.09281 0.24539,-0.25326 0.24539,-0.48134v-0.04955c0,-0.5946 -0.16202,-1.05707 -0.48606,-1.38741c-0.32404,-0.33033 -0.81404,-0.4955 -1.46999,-0.4955c-0.67955,0 -1.21201,0.14944 -1.5974,0.44831c-0.38696,0.2973 -0.65831,0.61505 -0.81404,0.95325l-1.35201,-0.4837c0.24067,-0.56314 0.56314,-1.0028 0.96741,-1.31898c0.40427,-0.3146 0.84707,-0.53561 1.32842,-0.66303c0.47977,-0.12584 0.95325,-0.18876 1.42044,-0.18876c0.2973,0 0.64022,0.03461 1.02876,0.10382c0.38854,0.07079 0.76449,0.21472 1.12786,0.43179c0.36337,0.21708 0.66618,0.54505 0.90842,0.98393c0.24067,0.43887 0.36101,1.02561 0.36101,1.76021v6.10647h-1.4228v-1.25527h-0.07315c-0.09595,0.20135 -0.2564,0.41685 -0.48134,0.64651c-0.22652,0.22809 -0.52618,0.42314 -0.89898,0.58516c-0.37438,0.16045 -0.83134,0.24067 -1.37089,0.24067zM208.68544,75.46262c0.56314,0 1.03898,-0.1109 1.42752,-0.33269c0.38854,-0.22022 0.68191,-0.50573 0.88011,-0.85651c0.19977,-0.34921 0.29966,-0.7173 0.29966,-1.10426v-1.30246c-0.06135,0.07236 -0.19348,0.13764 -0.3964,0.19584c-0.20292,0.0582 -0.43573,0.10854 -0.69842,0.15101c-0.26427,0.04247 -0.51988,0.07865 -0.76685,0.10854c-0.24696,0.02989 -0.44674,0.05506 -0.59932,0.07551c-0.37123,0.04876 -0.71651,0.12663 -1.03584,0.23359c-0.31932,0.10539 -0.57651,0.26427 -0.77157,0.47663c-0.19505,0.21079 -0.29258,0.49708 -0.29258,0.85887c0,0.49393 0.18404,0.86674 0.55213,1.11842c0.36809,0.25168 0.83528,0.37753 1.40156,0.37753zM216.74561,76.52441h-1.4228v-9.26589h1.37561v1.3992h0.09674c0.16831,-0.45932 0.47348,-0.83134 0.9155,-1.11606c0.44359,-0.28629 0.94224,-0.42944 1.49594,-0.42944c0.10539,0 0.23674,0.00236 0.39404,0.00708c0.15573,0.00315 0.27371,0.00944 0.35393,0.01888v1.44639c-0.04719,-0.01101 -0.15652,-0.02989 -0.32798,-0.05663c-0.17146,-0.02674 -0.35157,-0.04011 -0.54033,-0.04011c-0.44988,0 -0.85101,0.09359 -1.20336,0.28078c-0.35236,0.18719 -0.63,0.44438 -0.83292,0.77157c-0.20292,0.32876 -0.30438,0.70235 -0.30438,1.12078zM224.85533,76.71789c-0.77235,0 -1.45426,-0.19584 -2.04572,-0.58752c-0.59146,-0.39326 -1.05393,-0.94853 -1.38741,-1.66583c-0.33348,-0.71887 -0.50022,-1.5683 -0.50022,-2.5483c0,-0.9737 0.16674,-1.81841 0.50022,-2.53414c0.33348,-0.71573 0.79752,-1.26864 1.39213,-1.65875c0.59618,-0.39011 1.28437,-0.58516 2.06459,-0.58516c0.60247,0 1.07988,0.0991 1.43224,0.2973c0.35236,0.19977 0.62213,0.4255 0.80932,0.67719c0.18719,0.25011 0.33269,0.45618 0.43651,0.6182h0.12034v-4.56098h1.42516v12.35452h-1.37561v-1.4228h-0.16989c-0.10382,0.16831 -0.25247,0.37988 -0.44595,0.63471c-0.19348,0.2564 -0.46876,0.4837 -0.82584,0.68191c-0.35865,0.19977 -0.83528,0.29966 -1.42988,0.29966zM225.04645,75.43902c0.57101,0 1.05393,-0.15022 1.44875,-0.45067c0.39483,-0.29887 0.69449,-0.71494 0.89898,-1.24819c0.20449,-0.53325 0.30674,-1.14988 0.30674,-1.84987c0,-0.69056 -0.09989,-1.29696 -0.29966,-1.8192c-0.20135,-0.52067 -0.49943,-0.92651 -0.89426,-1.21752c-0.39326,-0.29101 -0.88011,-0.43651 -1.46055,-0.43651c-0.60247,0 -1.10426,0.15337 -1.50538,0.46011c-0.39955,0.30831 -0.69921,0.72438 -0.89898,1.24819c-0.1982,0.52539 -0.2973,1.1137 -0.2973,1.76493c0,0.66067 0.10146,1.2592 0.30438,1.79561c0.20292,0.5364 0.50494,0.96269 0.90606,1.27887c0.39955,0.31618 0.89662,0.47427 1.49123,0.47427zM243.62778,67.25852c-0.07236,-0.61191 -0.36573,-1.08696 -0.88011,-1.42516c-0.51438,-0.33663 -1.14595,-0.50494 -1.89471,-0.50494c-0.54584,0 -1.02325,0.08809 -1.43224,0.26427c-0.40899,0.17775 -0.72674,0.42078 -0.95325,0.7291c-0.22652,0.30989 -0.33977,0.66224 -0.33977,1.05707c0,0.33033 0.07944,0.61269 0.23831,0.84707c0.15888,0.23595 0.36258,0.43101 0.61112,0.58516c0.25011,0.15573 0.51123,0.28236 0.78337,0.37988c0.27371,0.0991 0.52539,0.17854 0.75505,0.23831l1.25527,0.33741c0.3209,0.08494 0.67955,0.20213 1.07595,0.35157c0.3964,0.14786 0.77629,0.35 1.13965,0.6064c0.36494,0.25483 0.66618,0.58123 0.9037,0.97921c0.23753,0.39797 0.35629,0.8864 0.35629,1.46527c0,0.66853 -0.17461,1.27179 -0.52382,1.80976c-0.34764,0.53955 -0.85415,0.9682 -1.51954,1.28595c-0.66539,0.31775 -1.47235,0.47663 -2.42088,0.47663c-0.88561,0 -1.65089,-0.14236 -2.29583,-0.42708c-0.64651,-0.28629 -1.15381,-0.68505 -1.5219,-1.19628c-0.36809,-0.50966 -0.57573,-1.10269 -0.62292,-1.77909h1.54314c0.0409,0.46719 0.19899,0.85258 0.47427,1.15617c0.27528,0.30359 0.62528,0.52854 1.04999,0.67483c0.42472,0.14629 0.88247,0.21944 1.37325,0.21944c0.57101,0 1.08381,-0.09359 1.53842,-0.28078c0.45303,-0.18562 0.81247,-0.44674 1.07831,-0.78337c0.26584,-0.33505 0.39876,-0.72831 0.39876,-1.17977c0,-0.41056 -0.11483,-0.74404 -0.34449,-1.00044c-0.22966,-0.25798 -0.5309,-0.46719 -0.9037,-0.62764c-0.37438,-0.16045 -0.77865,-0.30123 -1.2128,-0.42236l-1.5219,-0.43415c-0.96426,-0.27843 -1.72797,-0.67483 -2.29111,-1.18921c-0.56314,-0.51438 -0.84471,-1.18763 -0.84471,-2.01976c0,-0.69213 0.18798,-1.29696 0.56393,-1.81448c0.37595,-0.51595 0.88247,-0.91786 1.51954,-1.20572c0.63865,-0.28786 1.35201,-0.43179 2.1401,-0.43179c0.79595,0 1.50381,0.14157 2.12358,0.42472c0.6182,0.28472 1.10977,0.67168 1.47471,1.16089c0.36337,0.49078 0.55528,1.04842 0.57573,1.67291zM255.26029,80h-1.4228v-4.89839h-0.1227c-0.10382,0.16831 -0.25247,0.37988 -0.44595,0.63471c-0.19348,0.2564 -0.46876,0.4837 -0.82584,0.68191c-0.35865,0.19977 -0.83528,0.29966 -1.42988,0.29966c-0.77235,0 -1.45426,-0.19584 -2.04572,-0.58752c-0.59146,-0.39326 -1.05393,-0.94853 -1.38741,-1.66583c-0.33348,-0.71887 -0.50022,-1.5683 -0.50022,-2.5483c0,-0.9737 0.16674,-1.81841 0.50022,-2.53414c0.33348,-0.71573 0.79831,-1.26864 1.39448,-1.65875c0.5946,-0.39011 1.28201,-0.58516 2.06223,-0.58516c0.60404,0 1.08145,0.0991 1.43224,0.2973c0.35236,0.19977 0.62213,0.4255 0.80932,0.67719c0.18719,0.25011 0.33269,0.45618 0.43651,0.6182h0.16989v-1.47235h1.37561zM251.20661,75.43902c0.57101,0 1.05314,-0.15022 1.44639,-0.45067c0.39483,-0.29887 0.69449,-0.71494 0.89898,-1.24819c0.20607,-0.53325 0.3091,-1.14988 0.3091,-1.84987c0,-0.69056 -0.10067,-1.29696 -0.30202,-1.8192c-0.20135,-0.52067 -0.49943,-0.92651 -0.89426,-1.21752c-0.39326,-0.29101 -0.87932,-0.43651 -1.45819,-0.43651c-0.60404,0 -1.10583,0.15337 -1.50538,0.46011c-0.40112,0.30831 -0.70078,0.72438 -0.89898,1.24819c-0.19977,0.52539 -0.29966,1.1137 -0.29966,1.76493c0,0.66067 0.10146,1.2592 0.30438,1.79561c0.20449,0.5364 0.50651,0.96269 0.90606,1.27887c0.39955,0.31618 0.89741,0.47427 1.49359,0.47427zM263.70506,72.73499v-5.47648h1.42516v9.26589h-1.42516v-1.56909h-0.09438c-0.21865,0.47033 -0.55685,0.86988 -1.0146,1.19864c-0.45775,0.32719 -1.03662,0.49078 -1.73662,0.49078c-0.58045,0 -1.09561,-0.12741 -1.54549,-0.38224c-0.44988,-0.2564 -0.80381,-0.64258 -1.06179,-1.15853c-0.25798,-0.51752 -0.38696,-1.17033 -0.38696,-1.95841v-5.88704h1.42516v5.7903c0,0.6764 0.18955,1.21516 0.56865,1.61628c0.38067,0.40269 0.86674,0.60404 1.45819,0.60404c0.35393,0 0.71494,-0.09045 1.08303,-0.27135c0.36809,-0.1809 0.67797,-0.45854 0.92966,-0.83292c0.25011,-0.37438 0.37517,-0.85101 0.37517,-1.42988zM270.46276,76.74148c-0.58674,0 -1.11921,-0.11168 -1.5974,-0.33505c-0.47977,-0.22337 -0.86044,-0.54741 -1.14201,-0.97213c-0.28157,-0.42314 -0.42236,-0.93673 -0.42236,-1.54078c0,-0.53011 0.10461,-0.96112 0.31382,-1.29302c0.20921,-0.33191 0.48921,-0.59224 0.83999,-0.78101c0.34921,-0.18876 0.73617,-0.33112 1.16089,-0.42708c0.42472,-0.09438 0.85179,-0.1691 1.28123,-0.22416c0.56314,-0.07236 1.02089,-0.1282 1.37325,-0.16753c0.35236,-0.03775 0.60955,-0.10303 0.77157,-0.19584c0.16359,-0.09281 0.24539,-0.25326 0.24539,-0.48134v-0.04955c0,-0.5946 -0.16202,-1.05707 -0.48606,-1.38741c-0.32404,-0.33033 -0.81404,-0.4955 -1.46999,-0.4955c-0.67955,0 -1.21201,0.14944 -1.5974,0.44831c-0.38696,0.2973 -0.65831,0.61505 -0.81404,0.95325l-1.35201,-0.4837c0.24067,-0.56314 0.56314,-1.0028 0.96741,-1.31898c0.40427,-0.3146 0.84707,-0.53561 1.32842,-0.66303c0.47977,-0.12584 0.95325,-0.18876 1.42044,-0.18876c0.2973,0 0.64022,0.03461 1.02876,0.10382c0.38696,0.07079 0.76292,0.21472 1.12786,0.43179c0.36337,0.21708 0.66618,0.54505 0.90842,0.98393c0.24067,0.43887 0.36101,1.02561 0.36101,1.76021v6.10647h-1.4228v-1.25527h-0.07315c-0.09595,0.20135 -0.25719,0.41685 -0.4837,0.64651c-0.22494,0.22809 -0.5246,0.42314 -0.89898,0.58516c-0.37281,0.16045 -0.82898,0.24067 -1.36853,0.24067zM270.67984,75.46262c0.56314,0 1.03898,-0.1109 1.42752,-0.33269c0.38854,-0.22022 0.68191,-0.50573 0.88011,-0.85651c0.19977,-0.34921 0.29966,-0.7173 0.29966,-1.10426v-1.30246c-0.06135,0.07236 -0.19348,0.13764 -0.3964,0.19584c-0.20292,0.0582 -0.43573,0.10854 -0.69842,0.15101c-0.26427,0.04247 -0.51988,0.07865 -0.76685,0.10854c-0.24696,0.02989 -0.44674,0.05506 -0.59932,0.07551c-0.37123,0.04876 -0.71651,0.12663 -1.03584,0.23359c-0.31932,0.10539 -0.57651,0.26427 -0.77157,0.47663c-0.19505,0.21079 -0.29258,0.49708 -0.29258,0.85887c0,0.49393 0.18404,0.86674 0.55213,1.11842c0.36809,0.25168 0.83528,0.37753 1.40156,0.37753zM278.74001,76.52441h-1.4228v-9.26589h1.37561v1.3992h0.09674c0.16831,-0.45932 0.47348,-0.83134 0.9155,-1.11606c0.44202,-0.28629 0.94067,-0.42944 1.49594,-0.42944c0.10539,0 0.23595,0.00236 0.39168,0.00708c0.1573,0.00315 0.27607,0.00944 0.35629,0.01888v1.44639c-0.04719,-0.01101 -0.15652,-0.02989 -0.32798,-0.05663c-0.17146,-0.02674 -0.35157,-0.04011 -0.54033,-0.04011c-0.44988,0 -0.85101,0.09359 -1.20336,0.28078c-0.35236,0.18719 -0.63,0.44438 -0.83292,0.77157c-0.20292,0.32876 -0.30438,0.70235 -0.30438,1.12078zM287.23433,76.71789c-0.89348,0 -1.66268,-0.1982 -2.30762,-0.5946c-0.64494,-0.3964 -1.14123,-0.95168 -1.48887,-1.66583c-0.34921,-0.71415 -0.52382,-1.54549 -0.52382,-2.49403c0,-0.94853 0.17461,-1.78617 0.52382,-2.5129c0.34764,-0.72516 0.8337,-1.29224 1.45819,-1.70122c0.62606,-0.40741 1.35752,-0.61112 2.19437,-0.61112c0.48292,0 0.95954,0.08022 1.42988,0.24067c0.47033,0.16045 0.8982,0.42078 1.28359,0.78101c0.38696,0.36022 0.69449,0.83606 0.92258,1.42752c0.22966,0.59146 0.34449,1.31898 0.34449,2.18257v0.60404h-6.72858c0.02053,0.6163 0.14059,1.14405 0.36019,1.58325c0.24382,0.48449 0.5828,0.85258 1.01696,1.10426c0.43415,0.25168 0.93909,0.37753 1.51482,0.37753c0.37438,0 0.71337,-0.05348 1.01696,-0.16045c0.30359,-0.10697 0.56629,-0.2682 0.78808,-0.4837c0.22022,-0.21393 0.3909,-0.48213 0.51202,-0.8046l1.37561,0.38696c-0.14472,0.46561 -0.38854,0.8746 -0.73146,1.22696c-0.34135,0.35236 -0.76292,0.62606 -1.26471,0.82112c-0.50337,0.19505 -1.06887,0.29258 -1.6965,0.29258zM289.62454,71.14231c0,-0.52224 -0.10382,-0.98864 -0.31146,-1.3992c-0.20764,-0.41056 -0.50101,-0.7346 -0.88011,-0.97213c-0.38067,-0.23595 -0.8282,-0.35393 -1.34257,-0.35393c-0.56786,0 -1.05786,0.13921 -1.46999,0.41764c-0.41213,0.28 -0.7291,0.64337 -0.95089,1.0901c-0.18868,0.38275 -0.29653,0.78859 -0.32356,1.21752zM297.92538,70.56422h5.40569v1.32606h-5.40569z" stroke-width="1"></path><path d="M176.3268,83.58696h1.46999v12.35452h-1.44639l-6.73411,-9.70004h-0.12034v9.70004h-1.49594v-12.35452h1.44875l6.75535,9.72364h0.1227zM186.4374,92.15207v-5.47648h1.4228v9.26589h-1.4228v-1.56909h-0.09674c-0.21708,0.47033 -0.55528,0.86988 -1.0146,1.19864c-0.45775,0.32719 -1.03662,0.49078 -1.73662,0.49078c-0.57887,0 -1.09404,-0.12741 -1.54549,-0.38224c-0.44988,-0.2564 -0.80381,-0.64258 -1.06179,-1.15853c-0.2564,-0.51752 -0.3846,-1.17033 -0.3846,-1.95841v-5.88704h1.4228v5.7903c0,0.6764 0.19034,1.21516 0.57101,1.61628c0.3791,0.40269 0.86438,0.60404 1.45583,0.60404c0.35393,0 0.71494,-0.09045 1.08303,-0.27135c0.36809,-0.1809 0.67797,-0.45854 0.92966,-0.83292c0.25168,-0.37438 0.37753,-0.85101 0.37753,-1.42988zM192.03421,95.94148h-1.37325v-12.35452h1.4228v4.56098h0.12034c0.10539,-0.16202 0.2509,-0.36809 0.43651,-0.6182c0.18719,-0.25168 0.45696,-0.47741 0.80932,-0.67719c0.35236,-0.1982 0.82977,-0.2973 1.43224,-0.2973c0.78022,0 1.46842,0.19505 2.06459,0.58516c0.5946,0.39011 1.05864,0.94303 1.39213,1.65875c0.33505,0.71573 0.50258,1.56044 0.50258,2.53414c0,0.97999 -0.16753,1.82943 -0.50258,2.5483c-0.33348,0.7173 -0.79595,1.27258 -1.38741,1.66583c-0.59146,0.39168 -1.27258,0.58752 -2.04336,0.58752c-0.59618,0 -1.0728,-0.09989 -1.42988,-0.29966c-0.35865,-0.1982 -0.63471,-0.4255 -0.8282,-0.68191c-0.19191,-0.25483 -0.34056,-0.4664 -0.44595,-0.63471h-0.16989zM192.06017,91.30736c0,0.7 0.10225,1.31662 0.30674,1.84987c0.20449,0.53325 0.50415,0.94932 0.89898,1.24819c0.39483,0.30045 0.87775,0.45067 1.44875,0.45067c0.5946,0 1.09168,-0.15809 1.49123,-0.47427c0.40112,-0.31618 0.70314,-0.74247 0.90606,-1.27887c0.20292,-0.5364 0.30438,-1.13494 0.30438,-1.79561c0,-0.65123 -0.0991,-1.23954 -0.2973,-1.76493c-0.19977,-0.52382 -0.49943,-0.93988 -0.89898,-1.24819c-0.40112,-0.30674 -0.90292,-0.46011 -1.50538,-0.46011c-0.57887,0 -1.06572,0.1455 -1.46055,0.43651c-0.39483,0.29101 -0.69213,0.69685 -0.8919,1.21752c-0.20135,0.52224 -0.30202,1.12864 -0.30202,1.8192zM202.43504,95.94148h-1.4228v-9.26589h1.4228zM201.73662,85.1301c-0.27843,0 -0.51674,-0.09438 -0.71494,-0.28314c-0.19977,-0.18876 -0.29966,-0.41606 -0.29966,-0.68191c0,-0.26584 0.09989,-0.49314 0.29966,-0.68191c0.1982,-0.18876 0.43651,-0.28314 0.71494,-0.28314c0.27685,0 0.51516,0.09438 0.71494,0.28314c0.1982,0.18876 0.2973,0.41606 0.2973,0.68191c0,0.26584 -0.0991,0.49314 -0.2973,0.68191c-0.19977,0.18876 -0.43809,0.28314 -0.71494,0.28314zM207.76995,96.15856c-0.58831,0 -1.12157,-0.11168 -1.59976,-0.33505c-0.4782,-0.22337 -0.85808,-0.54741 -1.13965,-0.97213c-0.28157,-0.42314 -0.42236,-0.93673 -0.42236,-1.54078c0,-0.53011 0.10461,-0.96112 0.31382,-1.29302c0.20921,-0.33191 0.48842,-0.59224 0.83763,-0.78101c0.35078,-0.18876 0.73775,-0.33112 1.16089,-0.42708c0.42472,-0.09438 0.85258,-0.1691 1.28359,-0.22416c0.56314,-0.07236 1.02011,-0.1282 1.37089,-0.16753c0.35236,-0.03775 0.61033,-0.10303 0.77393,-0.19584c0.16202,-0.09281 0.24303,-0.25326 0.24303,-0.48134v-0.04955c0,-0.5946 -0.16202,-1.05707 -0.48606,-1.38741c-0.32247,-0.33033 -0.81168,-0.4955 -1.46763,-0.4955c-0.67955,0 -1.2128,0.14944 -1.59976,0.44831c-0.38539,0.2973 -0.65674,0.61505 -0.81404,0.95325l-1.35201,-0.4837c0.24225,-0.56314 0.5655,-1.0028 0.96977,-1.31898c0.40427,-0.3146 0.84629,-0.53561 1.32606,-0.66303c0.48134,-0.12584 0.95482,-0.18876 1.42044,-0.18876c0.29887,0 0.64179,0.03461 1.02876,0.10382c0.38854,0.07079 0.76449,0.21472 1.12786,0.43179c0.36494,0.21708 0.66775,0.54505 0.90842,0.98393c0.24225,0.43887 0.36337,1.02561 0.36337,1.76021v6.10647h-1.42516v-1.25527h-0.07079c-0.09753,0.20135 -0.25876,0.41685 -0.4837,0.64651c-0.22494,0.22809 -0.5246,0.42314 -0.89898,0.58516c-0.37438,0.16045 -0.83056,0.24067 -1.36853,0.24067zM207.98702,94.87969c0.56314,0 1.03819,-0.1109 1.42516,-0.33269c0.38854,-0.22022 0.68269,-0.50573 0.88247,-0.85651c0.1982,-0.34921 0.2973,-0.7173 0.2973,-1.10426v-1.30246c-0.05977,0.07236 -0.19112,0.13764 -0.39404,0.19584c-0.20292,0.0582 -0.43651,0.10854 -0.70078,0.15101c-0.26269,0.04247 -0.51831,0.07865 -0.76685,0.10854c-0.24696,0.02989 -0.44674,0.05506 -0.59932,0.07551c-0.36966,0.04876 -0.71415,0.12663 -1.03348,0.23359c-0.3209,0.10539 -0.57887,0.26427 -0.77393,0.47663c-0.19505,0.21079 -0.29258,0.49708 -0.29258,0.85887c0,0.49393 0.18404,0.86674 0.55213,1.11842c0.36809,0.25168 0.83606,0.37753 1.40392,0.37753zM216.04719,90.3659v5.57558h-1.42516v-9.26589h1.37561v1.44639h0.12034c0.21708,-0.47033 0.54741,-0.84943 0.991,-1.1373c0.44202,-0.28629 1.01303,-0.42944 1.71302,-0.42944c0.62764,0 1.17662,0.12741 1.64695,0.38224c0.47033,0.25483 0.83606,0.64101 1.09718,1.15853c0.26112,0.51595 0.39168,1.16876 0.39168,1.95841v5.88704h-1.4228v-5.79266c0,-0.72674 -0.18876,-1.2946 -0.56629,-1.70358c-0.3791,-0.40741 -0.8982,-0.61112 -1.55729,-0.61112c-0.4546,0 -0.85966,0.09831 -1.21516,0.29494c-0.35708,0.19663 -0.63786,0.48449 -0.84235,0.86359c-0.20449,0.37753 -0.30674,0.83528 -0.30674,1.37325zM236.29199,86.67559c-0.07236,-0.61191 -0.36573,-1.08696 -0.88011,-1.42516c-0.51438,-0.33663 -1.14595,-0.50494 -1.89471,-0.50494c-0.54741,0 -1.02482,0.08809 -1.43224,0.26427c-0.40899,0.17775 -0.72674,0.42078 -0.95325,0.7291c-0.22809,0.30989 -0.34213,0.66224 -0.34213,1.05707c0,0.33033 0.07944,0.61269 0.23831,0.84707c0.15888,0.23595 0.36337,0.43101 0.61348,0.58516c0.24854,0.15573 0.50966,0.28236 0.78337,0.37988c0.27371,0.0991 0.52539,0.17854 0.75505,0.23831l1.25527,0.33741c0.3209,0.08494 0.67955,0.20213 1.07595,0.35157c0.3964,0.14786 0.77629,0.35 1.13965,0.6064c0.36494,0.25483 0.66618,0.58123 0.9037,0.97921c0.23753,0.39797 0.35629,0.8864 0.35629,1.46527c0,0.66853 -0.17461,1.27179 -0.52382,1.80976c-0.34764,0.53955 -0.85415,0.9682 -1.51954,1.28595c-0.66539,0.31775 -1.47314,0.47663 -2.42324,0.47663c-0.88404,0 -1.64853,-0.14236 -2.29347,-0.42708c-0.64651,-0.28629 -1.15381,-0.68505 -1.5219,-1.19628c-0.36809,-0.50966 -0.57573,-1.10269 -0.62292,-1.77909h1.54314c0.0409,0.46719 0.19899,0.85258 0.47427,1.15617c0.27528,0.30359 0.62528,0.52854 1.04999,0.67483c0.42472,0.14629 0.88168,0.21944 1.37089,0.21944c0.57258,0 1.08539,-0.09359 1.53842,-0.28078c0.4546,-0.18562 0.81483,-0.44674 1.08067,-0.78337c0.26584,-0.33505 0.39876,-0.72831 0.39876,-1.17977c0,-0.41056 -0.11483,-0.74404 -0.34449,-1.00044c-0.22966,-0.25798 -0.5309,-0.46719 -0.9037,-0.62764c-0.37438,-0.16045 -0.77865,-0.30123 -1.2128,-0.42236l-1.5219,-0.43415c-0.96426,-0.27843 -1.72797,-0.67483 -2.29111,-1.18921c-0.56314,-0.51438 -0.84471,-1.18763 -0.84471,-2.01976c0,-0.69213 0.18798,-1.29696 0.56393,-1.81448c0.37595,-0.51595 0.88247,-0.91786 1.51954,-1.20572c0.63707,-0.28786 1.35044,-0.43179 2.1401,-0.43179c0.79595,0 1.50381,0.14157 2.12358,0.42472c0.6182,0.28472 1.10977,0.67168 1.47471,1.16089c0.36337,0.49078 0.55528,1.04842 0.57573,1.67291zM239.40658,86.67559h1.3992v-2.22032h1.4228v2.22032h1.97965v1.20572h-1.97965v5.40569c0,0.40269 0.05977,0.70314 0.17932,0.90134c0.11798,0.19977 0.27056,0.33269 0.45775,0.39876c0.18719,0.06607 0.38539,0.0991 0.5946,0.0991c0.15573,0 0.28393,-0.00865 0.3846,-0.02595c0.10067,-0.01888 0.18168,-0.03461 0.24303,-0.04719l0.28786,1.28123c-0.09595,0.03618 -0.23045,0.07315 -0.40348,0.1109c-0.17303,0.03775 -0.39247,0.05663 -0.65831,0.05663c-0.40112,0 -0.79359,-0.08652 -1.17741,-0.25955c-0.38539,-0.17303 -0.70314,-0.43651 -0.95325,-0.79044c-0.25168,-0.35393 -0.37753,-0.79988 -0.37753,-1.33786v-5.79266h-1.3992zM249.08303,96.15856c-0.58831,0 -1.12157,-0.11168 -1.59976,-0.33505c-0.4782,-0.22337 -0.85808,-0.54741 -1.13965,-0.97213c-0.28157,-0.42314 -0.42236,-0.93673 -0.42236,-1.54078c0,-0.53011 0.10461,-0.96112 0.31382,-1.29302c0.20921,-0.33191 0.48842,-0.59224 0.83763,-0.78101c0.35078,-0.18876 0.73775,-0.33112 1.16089,-0.42708c0.42472,-0.09438 0.85258,-0.1691 1.28359,-0.22416c0.56314,-0.07236 1.02011,-0.1282 1.37089,-0.16753c0.35236,-0.03775 0.61033,-0.10303 0.77393,-0.19584c0.16202,-0.09281 0.24303,-0.25326 0.24303,-0.48134v-0.04955c0,-0.5946 -0.16202,-1.05707 -0.48606,-1.38741c-0.32247,-0.33033 -0.81168,-0.4955 -1.46763,-0.4955c-0.67955,0 -1.2128,0.14944 -1.59976,0.44831c-0.38539,0.2973 -0.65674,0.61505 -0.81404,0.95325l-1.35201,-0.4837c0.24225,-0.56314 0.5655,-1.0028 0.96977,-1.31898c0.40427,-0.3146 0.84629,-0.53561 1.32606,-0.66303c0.48134,-0.12584 0.95482,-0.18876 1.42044,-0.18876c0.29887,0 0.64179,0.03461 1.02876,0.10382c0.38854,0.07079 0.76528,0.21472 1.13022,0.43179c0.36337,0.21708 0.66539,0.54505 0.90606,0.98393c0.24225,0.43887 0.36337,1.02561 0.36337,1.76021v6.10647h-1.42516v-1.25527h-0.07079c-0.09753,0.20135 -0.25876,0.41685 -0.4837,0.64651c-0.22494,0.22809 -0.5246,0.42314 -0.89898,0.58516c-0.37438,0.16045 -0.83056,0.24067 -1.36853,0.24067zM249.3001,94.87969c0.56314,0 1.03819,-0.1109 1.42516,-0.33269c0.38854,-0.22022 0.68269,-0.50573 0.88247,-0.85651c0.1982,-0.34921 0.2973,-0.7173 0.2973,-1.10426v-1.30246c-0.05977,0.07236 -0.19112,0.13764 -0.39404,0.19584c-0.20292,0.0582 -0.43651,0.10854 -0.70078,0.15101c-0.26269,0.04247 -0.51752,0.07865 -0.76449,0.10854c-0.24854,0.02989 -0.4491,0.05506 -0.60168,0.07551c-0.36966,0.04876 -0.71415,0.12663 -1.03348,0.23359c-0.3209,0.10539 -0.57887,0.26427 -0.77393,0.47663c-0.19505,0.21079 -0.29258,0.49708 -0.29258,0.85887c0,0.49393 0.18404,0.86674 0.55213,1.11842c0.36809,0.25168 0.83606,0.37753 1.40392,0.37753zM255.16355,86.67559h1.3992v-2.22032h1.42516v2.22032h1.97729v1.20572h-1.97729v5.40569c0,0.40269 0.05899,0.70314 0.17697,0.90134c0.11798,0.19977 0.27056,0.33269 0.45775,0.39876c0.18719,0.06607 0.38539,0.0991 0.5946,0.0991c0.1573,0 0.28629,-0.00865 0.38696,-0.02595c0.10067,-0.01888 0.1809,-0.03461 0.24067,-0.04719l0.29022,1.28123c-0.09753,0.03618 -0.23202,0.07315 -0.40348,0.1109c-0.17303,0.03775 -0.39247,0.05663 -0.65831,0.05663c-0.40269,0 -0.79595,-0.08652 -1.17977,-0.25955c-0.38382,-0.17303 -0.70157,-0.43651 -0.95325,-0.79044c-0.25168,-0.35393 -0.37753,-0.79988 -0.37753,-1.33786v-5.79266h-1.3992zM263.53753,95.94148h-1.42516v-9.26589h1.42516zM262.83675,85.1301c-0.27685,0 -0.51516,-0.09438 -0.71494,-0.28314c-0.1982,-0.18876 -0.2973,-0.41606 -0.2973,-0.68191c0,-0.26584 0.0991,-0.49314 0.2973,-0.68191c0.19977,-0.18876 0.43809,-0.28314 0.71494,-0.28314c0.27843,0 0.51674,0.09438 0.71494,0.28314c0.19977,0.18876 0.29966,0.41606 0.29966,0.68191c0,0.26584 -0.09989,0.49314 -0.29966,0.68191c-0.1982,0.18876 -0.43651,0.28314 -0.71494,0.28314zM269.90827,96.13497c-0.83685,0 -1.56988,-0.19899 -2.19909,-0.59696c-0.62921,-0.39797 -1.11999,-0.95561 -1.47235,-1.67291c-0.35236,-0.71573 -0.52854,-1.55179 -0.52854,-2.50818c0,-0.96584 0.17618,-1.80819 0.52854,-2.52706c0.35236,-0.72044 0.84314,-1.27965 1.47235,-1.67763c0.62921,-0.39797 1.36224,-0.59696 2.19909,-0.59696c0.83685,0 1.56988,0.19899 2.19909,0.59696c0.62921,0.39797 1.11999,0.95718 1.47235,1.67763c0.35078,0.71887 0.52618,1.56122 0.52618,2.52706c0,0.9564 -0.17539,1.79246 -0.52618,2.50818c-0.35236,0.7173 -0.84314,1.27493 -1.47235,1.67291c-0.62921,0.39797 -1.36224,0.59696 -2.19909,0.59696zM269.90827,94.8561c0.6355,0 1.15853,-0.16281 1.56909,-0.48842c0.40899,-0.32562 0.71258,-0.75426 0.91078,-1.28595c0.19663,-0.53011 0.29494,-1.10505 0.29494,-1.72482c0,-0.61977 -0.09831,-1.19707 -0.29494,-1.7319c-0.1982,-0.53483 -0.50179,-0.96741 -0.91078,-1.29774c-0.41056,-0.32876 -0.93359,-0.49314 -1.56909,-0.49314c-0.6355,0 -1.15853,0.16438 -1.56909,0.49314c-0.41056,0.33033 -0.71415,0.76292 -0.91078,1.29774c-0.19663,0.53483 -0.29494,1.11213 -0.29494,1.7319c0,0.61977 0.09831,1.19471 0.29494,1.72482c0.19663,0.53168 0.50022,0.96033 0.91078,1.28595c0.41056,0.32562 0.93359,0.48842 1.56909,0.48842zM277.70181,90.3659v5.57558h-1.4228v-9.26589h1.37561v1.44639h0.12034c0.21708,-0.47033 0.54663,-0.84943 0.98864,-1.1373c0.44359,-0.28629 1.0146,-0.42944 1.71302,-0.42944c0.62764,0 1.17662,0.12741 1.64695,0.38224c0.47191,0.25483 0.83842,0.64101 1.09954,1.15853c0.26112,0.51595 0.39168,1.16876 0.39168,1.95841v5.88704h-1.4228v-5.79266c0,-0.72674 -0.18955,-1.2946 -0.56865,-1.70358c-0.37753,-0.40741 -0.89584,-0.61112 -1.55493,-0.61112c-0.4546,0 -0.86044,0.09831 -1.21752,0.29494c-0.3555,0.19663 -0.6355,0.48449 -0.83999,0.86359c-0.20607,0.37753 -0.3091,0.83528 -0.3091,1.37325z" stroke-width="1"></path><path d="" stroke-width="1"></path><path d="" stroke-width="1"></path><path d="" stroke-width="1"></path><path d="M168,94.7l1.24148,1.24148" stroke-width="1"></path><path d="M168,93.2l1.49594,1.49594" stroke-width="1"></path><path d="M168,91.7l1.49594,1.49594" stroke-width="1"></path><path d="M168,90.2l1.49594,1.49594" stroke-width="1"></path><path d="M168,88.7l1.49594,1.49594" stroke-width="1"></path><path d="M168,87.2l1.49594,1.49594M175.46242,94.66242l1.27906,1.27906" stroke-width="1"></path><path d="M168,85.7l1.49594,1.49594M172.05669,89.75669l5.74009,5.74009" stroke-width="1"></path><path d="M168,84.2l6.14105,6.14105M176.3268,92.5268l1.46999,1.46999" stroke-width="1"></path><path d="M168.88696,83.58696l1.84033,1.84033M176.3268,91.0268l1.46999,1.46999" stroke-width="1"></path><path d="M176.3268,89.5268l1.46999,1.46999M180.77247,93.97247l1.99292,1.99292" stroke-width="1"></path><path d="M176.3268,88.0268l1.46999,1.46999M180.59755,92.29755l3.70068,3.70068" stroke-width="1"></path><path d="M176.3268,86.5268l1.46999,1.46999M180.59755,90.79755l1.4228,1.4228M184.4481,94.6481l0.90407,0.90407" stroke-width="1"></path><path d="M176.3268,85.0268l1.46999,1.46999M180.59755,89.29755l1.4228,1.4228M185.49194,94.19194l0.60603,0.60603M186.4374,95.1374l0.80408,0.80408" stroke-width="1"></path><path d="M168,75.2l1.32441,1.32441M176.38696,83.58696l1.40982,1.40982M180.59755,87.79755l1.4228,1.4228M186.17895,93.37895l1.68125,1.68125" stroke-width="1"></path><path d="M168,73.7l1.49594,1.49594M180.97559,86.67559l1.04476,1.04476M186.4374,92.1374l1.4228,1.4228" stroke-width="1"></path><path d="M168,72.2l1.49594,1.49594M186.4374,90.6374l1.4228,1.4228M190.66096,94.86096l1.08052,1.08052" stroke-width="1"></path><path d="M168,70.7l1.49594,1.49594M186.4374,89.1374l1.4228,1.4228M190.66096,93.36096l1.37325,1.37325" stroke-width="1"></path><path d="M168,69.2l1.79838,1.79838M186.4374,87.6374l1.4228,1.4228M190.66096,91.86096l4.27392,4.27392" stroke-width="1"></path><path d="M168,67.7l1.49594,1.49594M169.96996,69.66996l1.32842,1.32842M176.08376,75.78376l0.74064,0.74064M186.97559,86.67559l0.8846,0.8846M190.66096,90.36096l1.41537,1.41537M195.12843,94.82843l1.08851,1.08851" stroke-width="1"></path><path d="M168,66.2l1.49594,1.49594M171.46996,69.66996l1.32842,1.32842M176.08376,74.28376l1.49594,1.49594M190.66096,88.86096l1.47456,1.47456M196.1924,94.3924l0.98896,0.98896" stroke-width="1"></path><path d="M168,64.7l1.49594,1.49594M172.96996,69.66996l1.32842,1.32842M176.08376,72.78376l1.49594,1.49594M190.66096,87.36096l1.83138,1.83138M196.88574,93.58574l1.02814,1.02814" stroke-width="1"></path><path d="M168.96989,64.16989l0.52606,0.52606M174.46996,69.66996l1.32842,1.32842M176.08376,71.28376l1.49594,1.49594M190.66096,85.86096l1.4228,1.4228M192.50898,87.70898l0.64205,0.64205M197.29307,92.49307l1.14924,1.14924" stroke-width="1"></path><path d="M175.96996,69.66996l1.60975,1.60975M179.95388,73.65388l3.08715,3.08715M190.66096,84.36096l1.4228,1.4228M193.26482,86.96482l0.91528,0.91528M197.41332,91.11332l1.34581,1.34581M201.01224,94.71224l1.22924,1.22924" stroke-width="1"></path><path d="M176.08376,68.28376l1.49594,1.49594M180.31599,72.51599l1.09072,1.09072M183.26213,75.46213l1.08851,1.08851M191.38696,83.58696l0.6968,0.6968M194.38118,86.58118l1.50424,1.50424M196.92763,89.12763l1.90849,1.90849M201.01224,93.21224l1.4228,1.4228" stroke-width="1"></path><path d="M176.08376,66.78376l1.49594,1.49594M181.1119,71.8119l0.97021,0.97021M184.53683,75.23683l0.75716,0.75716M196.00883,86.70883l2.49769,2.49769M201.01224,91.71224l1.4228,1.4228" stroke-width="1"></path><path d="M176.08376,65.28376l1.49594,1.49594M182.20487,71.40487l1.02834,1.02834M185.4014,74.6014l1.92301,1.92301M201.01224,90.21224l1.4228,1.4228M204.64923,93.84923l2.21039,2.21039" stroke-width="1"></path><path d="M176.46989,64.16989l1.10982,1.10982M180.7312,68.4312l1.02812,1.02812M183.47653,71.17653l1.07995,1.07995M185.88938,73.58938l1.46352,1.46352M201.01224,88.71224l1.4228,1.4228M204.73125,92.43125l1.34433,1.34433M207.02825,94.72825l1.38638,1.38638" stroke-width="1"></path><path d="M181.53971,67.73971l0.99224,0.99224M184.81213,71.01213l0.96309,0.96309M185.9301,72.1301l1.4228,1.4228M189.96018,76.16018l0.36422,0.36422M201.01224,87.21224l1.4228,1.4228M205.33293,91.53293l0.99126,0.99126M208.62555,94.82555l0.89851,0.89851" stroke-width="1"></path><path d="M182.60261,67.30261l1.09722,1.09722M185.88341,70.58341l1.46949,1.46949M189.96018,74.66018l1.4228,1.4228M201.97559,86.67559l0.45945,0.45945M206.29491,90.99491l0.99368,0.99368M209.67651,94.37651l0.63844,0.63844M210.59195,95.29195l0.64954,0.64954" stroke-width="1"></path><path d="M183.9382,67.1382l3.4147,3.4147M189.96018,73.16018l1.4228,1.4228M200.74651,83.94651l1.16952,1.16952M205.09022,88.29022l0.7999,0.7999M207.4943,90.6943l1.06564,1.06564M210.36246,93.56246l1.65465,1.65465" stroke-width="1"></path><path d="M185.84047,67.54047l1.18907,1.18907M189.96018,71.66018l1.4228,1.4228M201.52051,83.22051l1.19579,1.19579M205.76759,87.46759l1.00969,1.00969M208.80891,90.50891l1.05378,1.05378M210.59195,92.29195l1.42516,1.42516" stroke-width="1"></path><path d="M189.96018,70.16018l1.4228,1.4228M206.70217,86.90217l1.01992,1.01992M210.11717,90.31717l1.89993,1.89993M214.62203,94.82203l1.11945,1.11945" stroke-width="1"></path><path d="M189.96018,68.66018l1.48036,1.48036M207.90035,86.60035l1.24608,1.24608M210.56004,89.26004l1.45707,1.45707M214.62203,93.32203l1.42516,1.42516" stroke-width="1"></path><path d="M190.05852,67.25852l1.27727,1.27727M191.43935,68.63935l0.53507,0.53507M199.24697,76.44697l0.07743,0.07743M209.4273,86.6273l2.55324,2.55324M214.62203,91.82203l1.42516,1.42516" stroke-width="1"></path><path d="M192.05788,67.75788l0.84899,0.84899M198.36601,74.06601l2.38366,2.38366M214.62203,90.32203l1.42516,1.42516" stroke-width="1"></path><path d="M193.02767,67.22767l1.31225,1.31225M197.48505,71.68505l2.20511,2.20511M200.14865,74.34865l1.00614,1.00614M214.62203,88.82203l1.42681,1.42681M220.53502,94.73502l1.20646,1.20646" stroke-width="1"></path><path d="M194.42545,67.12545l0.16886,0.16886M196.60409,69.30409l2.29096,2.29096M200.53459,73.23459l1.0253,1.0253M214.62203,87.32203l1.71072,1.71072M220.53502,93.23502l1.4228,1.4228" stroke-width="1"></path><path d="M196.05852,67.25852l2.04142,2.04142M200.92054,72.12054l1.04446,1.04446M215.47559,86.67559l0.52205,0.52205M216.41918,87.61918l0.6114,0.6114M220.53502,91.73502l1.4228,1.4228" stroke-width="1"></path><path d="M201.30649,71.00649l1.06363,1.06363M205.71858,75.41858l0.7839,0.7839M217.2183,86.9183l0.92752,0.92752M220.53502,90.23502l1.4228,1.4228" stroke-width="1"></path><path d="M201.69244,69.89244l1.08279,1.08279M205.32508,73.52508l3.21592,3.21592M218.37628,86.57628l3.58154,3.58154" stroke-width="1"></path><path d="M202.07839,68.77839l1.10195,1.10195M205.73505,72.43505l1.06379,1.06379M208.76192,75.46192l1.05028,1.05028M220.05233,86.75233l1.64606,1.64606" stroke-width="1"></path><path d="M202.46434,67.66434l1.12112,1.12112M206.56494,71.76494l0.97058,0.97058M209.99335,75.19335l0.73359,0.73359M211.29273,76.49273l0.03168,0.03168" stroke-width="1"></path><path d="M203.55852,67.25852l0.43205,0.43205M205.58398,69.28398l0.04488,0.04488M207.67959,71.37959l1.03454,1.03454M210.82556,74.52556l1.88996,1.88996M229.05611,92.75611l3.32526,3.32526" stroke-width="1"></path><path d="M206.15602,68.35602l1.02429,1.02429M208.96079,71.16079l1.07776,1.07776M211.27182,73.47182l1.4437,1.4437M232.50913,94.70913l1.43399,1.43399" stroke-width="1"></path><path d="M206.98864,67.68864l0.99293,0.99293M210.29827,70.99827l0.92702,0.92702M211.29273,71.99273l1.4228,1.4228M215.32281,76.02281l0.50159,0.50159M234.06658,94.76658l1.15957,1.15957" stroke-width="1"></path><path d="M208.07639,67.27639l1.11699,1.11699M211.27817,70.47817l1.43736,1.43736M215.32281,74.52281l1.4228,1.4228M235.21838,94.41838l1.04808,1.04808" stroke-width="1"></path><path d="M209.44103,67.14103l3.2745,3.2745M215.32281,73.02281l1.4228,1.4228M229.34761,87.04761l2.98758,2.98758M236.05394,93.75394l1.03464,1.03464" stroke-width="1"></path><path d="M211.52005,67.72005l0.66949,0.66949M215.32281,71.52281l1.4228,1.4228M229.5383,85.7383l1.26206,1.26206M232.39867,88.59867l2.04834,2.04834M236.45979,92.65979l1.20603,1.20603" stroke-width="1"></path><path d="M215.32281,70.02281l1.4228,1.4228M230.10603,84.80603l0.98715,0.98715M234.50175,89.20175l3.4088,3.4088" stroke-width="1"></path><path d="M215.32281,68.52281l1.50883,1.50883M221.5868,74.7868l1.51976,1.51976M230.91931,84.11931l0.97926,0.97926M240.82512,94.02512l1.99157,1.99157" stroke-width="1"></path><path d="M215.55852,67.25852l1.13991,1.13991M216.84148,68.54148l0.56452,0.56452M220.95598,72.65598l4.05941,4.05941M231.95007,83.65007l1.11682,1.11682M240.80578,92.50578l1.52884,1.52884M242.89824,94.59824l1.34075,1.34075" stroke-width="1"></path><path d="M217.49561,67.69561l0.88037,0.88037M220.95821,71.15821l1.42665,1.42665M225.23346,75.43346l1.00822,1.00822M233.22625,83.42625l1.49557,1.49557M236.25505,86.45505l0.22054,0.22054M240.80578,91.00578l1.4228,1.4228" stroke-width="1"></path><path d="M218.49784,67.19784l1.36963,1.36963M221.21308,69.91308l1.18486,1.18486M226.37403,75.07403l0.70434,0.70434M227.72688,76.42688l0.09752,0.09752M234.85908,83.55908l2.86361,2.86361M240.80578,89.50578l1.4228,1.4228" stroke-width="1"></path><path d="M219.93614,67.13614l0.01844,0.01844M221.68873,68.88873l1.0368,1.0368M227.11115,74.31115l1.99134,1.99134M239.47559,86.67559l1.20572,1.20572M240.80578,88.00578l1.4228,1.4228M245.92569,93.12569l3.03114,3.03114" stroke-width="1"></path><path d="M222.36842,68.06842l0.97639,0.97639M227.54807,73.24807l1.55442,1.55442M240.80578,86.50578l1.4228,1.4228M246.26752,91.96752l1.10415,1.10415M249.17769,94.87769l1.10517,1.10517" stroke-width="1"></path><path d="M223.27091,67.47091l1.03596,1.03596M227.70092,71.90092l1.40157,1.40157M240.80578,85.00578l1.4228,1.4228M242.47559,86.67559l1.20572,1.20572M247.04936,91.24936l0.97093,0.97093M250.4714,94.6714l0.76694,0.76694" stroke-width="1"></path><path d="M224.45796,67.15796l1.35967,1.35967M227.41937,70.11937l1.68313,1.68313M241.75527,84.45527l0.47331,0.47331M243.97559,86.67559l0.23264,0.23264M248.13328,90.83328l1.02565,1.02565M251.34996,94.04996l1.89152,1.89152" stroke-width="1"></path><path d="M226.15984,67.35984l2.94265,2.94265M246.6808,87.8808l1.0295,1.0295M249.40071,90.60071l1.08042,1.08042M251.85462,93.05462l1.47556,1.47556" stroke-width="1"></path><path d="M227.67733,67.37733l1.42516,1.42516M247.47973,87.17973l0.99187,0.99187M250.73522,90.43522l0.97531,0.97531M251.90503,91.60503l1.42516,1.42516" stroke-width="1"></path><path d="M227.67733,65.87733l1.42516,1.42516M237.13302,75.33302l0.37476,0.37476M248.5312,86.7312l1.08965,1.08965M251.8401,90.0401l1.49009,1.49009" stroke-width="1"></path><path d="M227.67733,64.37733l1.42516,1.42516M236.63904,73.33904l3.36228,3.36228M249.85546,86.55546l3.47472,3.47472M256.56275,93.26275l2.79105,2.79105" stroke-width="1"></path><path d="M228.96989,64.16989l0.13261,0.13261M240.14592,75.34592l1.36196,1.36196M251.7034,86.9034l1.35309,1.35309M256.56275,91.76275l1.42516,1.42516M259.47631,94.67631l0.49501,0.49501" stroke-width="1"></path><path d="M241.61549,75.31549l1.13394,1.13394M256.56275,90.26275l1.42516,1.42516M262.11237,95.81237l0.12911,0.12911" stroke-width="1"></path><path d="M242.71453,74.91453l1.03846,1.03846M255.16355,87.36355l0.51777,0.51777M256.56275,88.76275l1.42516,1.42516M262.11237,94.31237l1.42516,1.42516" stroke-width="1"></path><path d="M236.67965,67.37965l3.33967,3.33967M243.4942,74.1942l1.04308,1.04308M255.97559,86.67559l2.01231,2.01231M262.11237,92.81237l1.42516,1.42516" stroke-width="1"></path><path d="M236.94636,66.14636l1.18197,1.18197M240.11101,69.31101l2.05164,2.05164M243.79205,72.99205l1.27722,1.27722M256.56275,85.76275l2.11857,2.11857M262.11237,91.31237l1.42516,1.42516" stroke-width="1"></path><path d="M237.56044,65.26044l0.9746,0.9746M242.18877,69.88877l3.05117,3.05117M256.75527,84.45527l1.23264,1.23264M258.97559,86.67559l0.9896,0.9896M262.11237,89.81237l1.42516,1.42516M266.31228,94.01228l1.69589,1.69589" stroke-width="1"></path><path d="M238.41011,64.61011l0.99113,0.99113M247.23575,73.43575l3.24996,3.24996M262.11237,88.31237l1.42516,1.42516M265.73057,91.93057l4.20433,4.20433" stroke-width="1"></path><path d="M239.47778,64.17778l1.15556,1.15556M247.08087,71.78087l1.63372,1.63372M250.69628,75.39628l1.22313,1.22313M253.83749,78.53749l1.4228,1.4228M262.11237,86.81237l1.42516,1.42516M265.76301,90.46301l1.39252,1.39252M270.14801,94.84801l1.0923,1.0923" stroke-width="1"></path><path d="M240.80081,64.00081l1.67657,1.67657M243.47391,66.67391l0.58461,0.58461M247.2303,70.4303l1.27501,1.27501M252.09361,75.29361l0.81368,0.81368M253.83749,77.03749l1.4228,1.4228M263.47559,86.67559l0.06194,0.06194M266.05451,89.25451l1.16042,1.16042M271.2962,94.4962l0.94991,0.94991" stroke-width="1"></path><path d="M242.53616,64.23616l2.47495,2.47495M247.6129,69.3129l1.09374,1.09374M252.98507,74.68507l0.60623,0.60623M253.83749,75.53749l1.4228,1.4228M261.96753,83.66753l1.34933,1.34933M266.56425,88.26425l1.01384,1.01384M272.04866,93.74866l0.97876,0.97876" stroke-width="1"></path><path d="M248.20256,68.40256l0.99198,0.99198M253.5487,73.7487l1.71159,1.71159M263.01352,83.21352l0.83062,0.83062M267.27279,87.47279l0.95181,0.95181M272.50835,92.70835l1.09911,1.09911" stroke-width="1"></path><path d="M249.00412,67.70412l0.98687,0.98687M253.8301,72.5301l1.43019,1.43019M268.19395,86.89395l1.0165,1.0165M272.68303,91.38303l1.29594,1.29594M276.27901,94.97901l0.96247,0.96247" stroke-width="1"></path><path d="M250.0533,67.2533l1.16376,1.16376M253.79831,70.99831l1.46197,1.46197M269.38286,86.58286l1.36578,1.36578M272.36548,89.56548l1.74024,1.74024M276.27901,93.47901l1.4228,1.4228" stroke-width="1"></path><path d="M251.45584,67.15584l3.80444,3.80444M257.87911,73.57911l3.06482,3.06482M270.97652,86.67652l2.88805,2.88805M276.27901,91.97901l1.4228,1.4228" stroke-width="1"></path><path d="M253.88468,68.08468l1.37561,1.37561M257.86521,72.06521l1.45989,1.45989M261.05522,75.25522l1.13285,1.13285M276.27901,90.47901l1.4228,1.4228" stroke-width="1"></path><path d="M254.55852,67.25852l0.70177,0.70177M257.86521,70.56521l1.42516,1.42516M262.33085,75.03085l0.72663,0.72663M263.70506,76.40506l0.11935,0.11935M276.27901,88.97901l1.4228,1.4228M282.19201,94.89201l1.04948,1.04948" stroke-width="1"></path><path d="M257.86521,69.06521l1.42516,1.42516M263.17459,74.37459l1.95562,1.95562M276.27901,87.47901l1.6593,1.6593M282.19201,93.39201l1.4228,1.4228" stroke-width="1"></path><path d="M257.86521,67.56521l1.42516,1.42516M263.65084,73.35084l1.47938,1.47938M276.97559,86.67559l0.67903,0.67903M278.00993,87.70993l0.58579,0.58579M282.19201,91.89201l1.4228,1.4228" stroke-width="1"></path><path d="M259.05852,67.25852l0.23185,0.23185M263.70506,71.90506l1.42516,1.42516M278.77646,86.97646l0.88566,0.88566M282.19201,90.39201l1.4228,1.4228" stroke-width="1"></path><path d="M263.70506,70.40506l1.42516,1.42516M267.30254,74.00254l2.7166,2.7166M279.89253,86.59253l3.72228,3.72228" stroke-width="1"></path><path d="M263.70506,68.90506l1.42516,1.42516M267.53732,72.73732l1.18923,1.18923M270.2339,75.4339l1.19986,1.19986M281.48177,86.68177l1.95205,1.95205" stroke-width="1"></path><path d="M263.70506,67.40506l1.42516,1.42516M268.24598,71.94598l0.97642,0.97642M271.63284,75.33284l0.82017,0.82017" stroke-width="1"></path><path d="M265.05852,67.25852l0.0717,0.0717M269.28021,71.48021l1.01165,1.01165M272.58388,74.78388l0.58046,0.58046M273.28713,75.48713l1.03728,1.03728" stroke-width="1"></path><path d="M267.93465,68.63465l1.04288,1.04288M270.5215,71.2215l1.07859,1.07859M273.17071,73.87071l1.53921,1.53921" stroke-width="1"></path><path d="M268.68137,67.88137l0.99939,0.99939M271.84953,71.04953l1.01924,1.01924M273.28713,72.48713l1.4228,1.4228M277.31721,76.51721l0.0072,0.0072" stroke-width="1"></path><path d="M269.68048,67.38048l1.0547,1.0547M273.08055,70.78055l1.62938,1.62938M277.31721,75.01721l1.4228,1.4228" stroke-width="1"></path><path d="M270.94889,67.14889l1.45213,1.45213M273.08152,69.28152l1.6284,1.6284M277.31721,73.51721l1.4228,1.4228" stroke-width="1"></path><path d="M272.61197,67.31197l1.97636,1.97636M277.31721,72.01721l1.4228,1.4228" stroke-width="1"></path><path d="M277.31721,70.51721l1.4228,1.4228" stroke-width="1"></path><path d="M277.31721,69.01721l1.43181,1.43181" stroke-width="1"></path><path d="M277.31721,67.51721l1.84795,1.84795M283.03134,73.23134l3.43314,3.43314" stroke-width="1"></path><path d="M278.55852,67.25852l0.1343,0.1343M279.23304,67.93304l0.77254,0.77254M282.92179,71.62179l1.50328,1.50328M286.69982,75.39982l1.26965,1.26965" stroke-width="1"></path><path d="M280.12132,67.32132l1.17239,1.17239M283.11784,70.31784l2.05614,2.05614M288.12066,75.32066l1.01751,1.01751" stroke-width="1"></path><path d="M281.41471,67.11471l0.53427,0.53427M283.54328,69.24328l0.99256,0.99256M285.44231,71.14231l1.23168,1.23168M289.06724,74.76724l0.98027,0.98027" stroke-width="1"></path><path d="M284.16595,68.36595l0.92808,0.92808M286.94231,71.14231l1.23168,1.23168M289.88376,74.08376l0.82306,0.82306" stroke-width="1"></path><path d="M284.9901,67.6901l0.95939,0.95939M288.44231,71.14231l1.23168,1.23168" stroke-width="1"></path><path d="M286.05465,67.25465l1.16493,1.16493M289.60984,70.80984l1.46109,1.46109" stroke-width="1"></path><path d="M287.45339,67.15339l3.55009,3.55009" stroke-width="1"></path><path d="" stroke-width="1"></path><path d="" stroke-width="1"></path><path d="" stroke-width="1"></path><path d="M297.92538,71.62538l0.2649,0.2649" stroke-width="1"></path><path d="M298.36422,70.56422l1.32606,1.32606" stroke-width="1"></path><path d="M299.86422,70.56422l1.32606,1.32606" stroke-width="1"></path><path d="M301.36422,70.56422l1.32606,1.32606" stroke-width="1"></path><path d="M302.86422,70.56422l0.46685,0.46685" stroke-width="1"></path><path d="" stroke-width="1"></path><path d="" stroke-width="1"></path><path d="" stroke-width="1"></path><path d="" stroke-width="1"></path><path d="" stroke-width="1"></path><path d="" stroke-width="1"></path><path d="" stroke-width="1"></path><path d="" stroke-width="1"></path><path d="" stroke-width="1"></path><path d="" stroke-width="1"></path><path d="" stroke-width="1"></path><path d="" stroke-width="1"></path><path d="" stroke-width="1"></path><path d="" stroke-width="1"></path><path d="" stroke-width="1"></path><path d="" stroke-width="1"></path><path d="" stroke-width="1"></path><path d="" stroke-width="1"></path><path d="" stroke-width="1"></path><path d="" stroke-width="1"></path><path d="" stroke-width="1"></path><path d="" stroke-width="1"></path><path d="" stroke-width="1"></path><path d="" stroke-width="1"></path><path d="" stroke-width="1"></path><path d="" stroke-width="1"></path><path d="" stroke-width="1"></path><path d="" stroke-width="1"></path><path d="" stroke-width="1"></path><path d="" stroke-width="1"></path><path d="" stroke-width="1"></path><path d="" stroke-width="1"></path><path d="" stroke-width="1"></path><path d="" stroke-width="1"></path><path d="" stroke-width="1"></path><path d="" stroke-width="1"></path><path d="" stroke-width="1"></path><path d="" stroke-width="1"></path><path d="" stroke-width="1"></path><path d="" stroke-width="1"></path><path d="" stroke-width="1"></path><path d="" stroke-width="1"></path><path d="" stroke-width="1"></path><path d="" stroke-width="1"></path><path d="" stroke-width="1"></path><path d="" stroke-width="1"></path><path d="" stroke-width="1"></path><path d="" stroke-width="1"></path><path d="" stroke-width="1"></path><path d="" stroke-width="1"></path><path d="" stroke-width="1"></path><path d="" stroke-width="1"></path><path d="" stroke-width="1"></path><path d="" stroke-width="1"></path><path d="" stroke-width="1"></path><path d="" stroke-width="1"></path><path d="" stroke-width="1"></path><path d="" stroke-width="1"></path><path d="" stroke-width="1"></path><path d="" stroke-width="1"></path><path d="" stroke-width="1"></path><path d="M308.58189,465.43811l3.9018,0.38378l0.44775,-1.91892l0.25586,-1.34324l0.31982,-1.21531l0.25586,-0.95946l0.51171,-1.15135l1.21531,-1.02342v0l0.51171,-0.51171l2.23874,-1.98288l2.81441,-2.43063l1.34324,-1.21531l1.98288,-2.11081l0.57567,-0.57567v0l0.44775,-0.51171l0.38378,-0.44775l0.51171,-0.83153l0.7036,-1.15135l2.11081,1.21531l1.91892,1.08739l1.85495,0.95946l2.17477,1.02342l1.27928,0.57567v0l0.7036,0.31982l2.43063,1.02342l4.41351,1.66306l5.56486,1.79099l3.19819,0.83153l0.7036,-0.38378l3.9018,-2.43063v0l0.63964,-0.44775l3.26216,-1.85495l3.26216,-1.91892l2.36666,-1.53513l2.68648,-1.98288l2.87837,-2.43063l2.55856,-1.85495l0.76757,-0.63964l-1.40721,-1.15135v0l-8.69909,-7.29188v0l-0.63964,-0.57567l-9.27476,-7.41981l-2.68648,-2.23874l-2.43063,-1.91892v0l-4.34954,-3.51801l-3.77387,-3.13423l-7.22792,-6.0126l-2.62252,-2.17477l-1.21531,-1.15135l-0.7036,-0.63964v0l-3.26216,-3.19819l-2.3027,-2.36666l-1.15135,-0.95946l-1.72702,-1.27928l-1.79099,-1.02342l-6.39639,-4.22162l-0.7036,-0.51171v0l-0.19189,-0.12793l-0.57567,-0.31982l-5.37297,-3.64594l-0.57567,-0.38378v0l-4.22162,-2.87837l-1.27928,-0.76757l-4.79729,-3.26216l-0.31982,-0.31982l-0.38378,-0.63964l-4.09369,-8.82702l-0.31982,-0.57567l-1.15135,-2.43063v0l-0.38378,-0.76757l-1.47117,-3.0063l-1.79099,-3.58198l-0.51171,-1.02342l-0.76757,-1.72702l-1.34324,-2.49459l-2.11081,-4.47747v0l-0.31982,-0.76757l-1.15135,-2.23874l-1.27928,-2.49459l-0.06396,-0.19189l-1.08739,-2.36666l-1.47117,-2.81441l-1.08739,-2.3027l-1.21531,-2.49459l-0.25586,-0.38378l-0.76757,-1.53513v0l-0.31982,-0.57567l-2.81441,-6.0126l-8.05945,-16.37475l-8.44323,-17.14232l-0.76757,-1.66306l-0.25586,-0.57567l-0.83153,-1.5991l-1.79099,-3.64594l-0.89549,-1.72702l-0.95946,-1.72702l-0.63964,-1.02342l-0.38378,-0.63964l-1.08739,-1.40721l-0.63964,-0.63964v0l-0.12793,-0.19189l-1.79099,-1.72702l-1.27928,-1.02342l-3.45405,-2.49459l-2.49459,-1.53513l-3.45405,-1.98288v0l-1.40721,-0.76757l-3.39009,-1.98288l-2.68648,-1.53513l-4.15765,-2.36666l-2.3027,-1.47117l-6.97206,-4.28558l-2.23874,-1.34324l-0.89549,-0.57567v0l-0.31982,-0.19189l-0.38378,-0.19189l-1.98288,-1.15135l-3.51801,-2.11081l-2.43063,-1.27928l-1.91892,-1.08739l-1.27928,-0.7036l-4.54144,-2.68648l-3.07027,-1.85495l-3.83783,-2.3027l-1.85495,-1.15135v0l-1.72702,-1.02342l-1.34324,-0.95946l-0.63964,-0.31982l-4.15765,-2.36666l-4.54144,-2.75045l-1.85495,-1.15135l-1.27928,-0.76757v0l-2.87837,-1.72702l-2.11081,-1.47117l-2.17477,-1.34324l-2.04684,-1.27928l-2.04684,-1.34324l-0.38378,-0.12793l-2.17477,-1.21531l-0.63964,-0.25586l-3.96576,-1.91892l-1.72702,-0.76757v0l-3.32612,-1.47117l-4.47747,-1.72702l-3.0063,-1.08739l-0.51171,-0.19189v0l-6.65224,-2.36666l-4.79729,-1.66306l-2.11081,-1.79099l-0.89549,-0.7036v0l-1.53513,-1.08739l-1.98288,-1.47117l-1.79099,-1.34324l-2.55856,-2.04684l-5.43693,-4.54144l-0.83153,-0.63964l-0.83153,-0.76757v0l-0.95946,-0.83153l-3.26216,-2.36666l-1.85495,-0.7036h-0.25586l-1.72702,-0.57567l-2.87837,-0.76757l-1.5991,-0.44775l-1.98288,-0.51171" stroke-width="1"></path><path d="M80,531v-407h308v407z" stroke-width="1"></path></g></svg>